<mxfile host="app.diagrams.net" modified="2021-01-31T16:19:45.671Z" agent="5.0 (Windows NT 10.0; Win64; x64) AppleWebKit/537.36 (KHTML, like Gecko) Chrome/88.0.4324.104 Safari/537.36" etag="jyHFh5X1iElIVW544l3U" version="14.2.9" type="github">
  <diagram name="Page-1" id="42789a77-a242-8287-6e28-9cd8cfd52e62">
    <mxGraphModel dx="1038" dy="548" grid="1" gridSize="10" guides="1" tooltips="1" connect="1" arrows="1" fold="1" page="1" pageScale="1" pageWidth="1100" pageHeight="850" background="#ffffff" math="0" shadow="0">
      <root>
        <mxCell id="0" />
        <mxCell id="1" parent="0" />
        <mxCell id="1ea317790d2ca983-13" value="" style="edgeStyle=none;rounded=1;html=1;labelBackgroundColor=none;startArrow=none;startFill=0;startSize=5;endArrow=classicThin;endFill=1;endSize=5;jettySize=auto;orthogonalLoop=1;strokeColor=#B3B3B3;strokeWidth=1;fontFamily=Verdana;fontSize=12" parent="1" source="1ea317790d2ca983-1" target="1ea317790d2ca983-9" edge="1">
          <mxGeometry x="-0.1517" y="47" relative="1" as="geometry">
            <mxPoint as="offset" />
          </mxGeometry>
        </mxCell>
        <mxCell id="1ea317790d2ca983-14" value="" style="edgeStyle=none;rounded=1;html=1;labelBackgroundColor=none;startArrow=none;startFill=0;startSize=5;endArrow=classicThin;endFill=1;endSize=5;jettySize=auto;orthogonalLoop=1;strokeColor=#B3B3B3;strokeWidth=1;fontFamily=Verdana;fontSize=12" parent="1" source="1ea317790d2ca983-1" target="1ea317790d2ca983-3" edge="1">
          <mxGeometry x="-0.0308" y="-42" relative="1" as="geometry">
            <mxPoint x="-1" as="offset" />
          </mxGeometry>
        </mxCell>
        <mxCell id="1ea317790d2ca983-1" value="Start&amp;nbsp;&lt;div&gt;&lt;br&gt;&lt;/div&gt;" style="ellipse;whiteSpace=wrap;html=1;rounded=0;shadow=1;comic=0;labelBackgroundColor=none;strokeWidth=1;fontFamily=Verdana;fontSize=12;align=center;" parent="1" vertex="1">
          <mxGeometry x="450" y="80" width="90" height="60" as="geometry" />
        </mxCell>
        <mxCell id="1ea317790d2ca983-15" value="" style="edgeStyle=none;rounded=1;html=1;labelBackgroundColor=none;startArrow=none;startFill=0;startSize=5;endArrow=classicThin;endFill=1;endSize=5;jettySize=auto;orthogonalLoop=1;strokeColor=#B3B3B3;strokeWidth=1;fontFamily=Verdana;fontSize=12" parent="1" source="1ea317790d2ca983-3" target="1ea317790d2ca983-4" edge="1">
          <mxGeometry x="0.25" y="83" relative="1" as="geometry">
            <mxPoint as="offset" />
          </mxGeometry>
        </mxCell>
        <mxCell id="1ea317790d2ca983-3" value="&lt;span&gt;virgo_room&lt;/span&gt;" style="ellipse;whiteSpace=wrap;html=1;rounded=0;shadow=1;comic=0;labelBackgroundColor=none;strokeWidth=1;fontFamily=Verdana;fontSize=12;align=center;" parent="1" vertex="1">
          <mxGeometry x="700" y="190" width="75" height="50" as="geometry" />
        </mxCell>
        <mxCell id="1ea317790d2ca983-16" value="" style="edgeStyle=none;rounded=1;html=1;labelBackgroundColor=none;startArrow=none;startFill=0;startSize=5;endArrow=classicThin;endFill=1;endSize=5;jettySize=auto;orthogonalLoop=1;strokeColor=#B3B3B3;strokeWidth=1;fontFamily=Verdana;fontSize=12" parent="1" source="1ea317790d2ca983-4" target="1ea317790d2ca983-5" edge="1">
          <mxGeometry x="0.2" y="63" relative="1" as="geometry">
            <mxPoint as="offset" />
          </mxGeometry>
        </mxCell>
        <mxCell id="1ea317790d2ca983-4" value="&lt;span&gt;lol_room&lt;/span&gt;" style="ellipse;whiteSpace=wrap;html=1;rounded=0;shadow=1;comic=0;labelBackgroundColor=none;strokeWidth=1;fontFamily=Verdana;fontSize=12;align=center;" parent="1" vertex="1">
          <mxGeometry x="700" y="320" width="75" height="50" as="geometry" />
        </mxCell>
        <mxCell id="1ea317790d2ca983-5" value="&lt;span&gt;gaming_room&lt;/span&gt;" style="ellipse;whiteSpace=wrap;html=1;rounded=0;shadow=1;comic=0;labelBackgroundColor=none;strokeWidth=1;fontFamily=Verdana;fontSize=12;align=center;" parent="1" vertex="1">
          <mxGeometry x="700" y="470" width="75" height="50" as="geometry" />
        </mxCell>
        <mxCell id="1ea317790d2ca983-19" value="" style="edgeStyle=none;rounded=1;html=1;labelBackgroundColor=none;startArrow=none;startFill=0;startSize=5;endArrow=classicThin;endFill=1;endSize=5;jettySize=auto;orthogonalLoop=1;strokeColor=#B3B3B3;strokeWidth=1;fontFamily=Verdana;fontSize=12" parent="1" source="1ea317790d2ca983-9" target="1ea317790d2ca983-10" edge="1">
          <mxGeometry x="0.75" y="83" relative="1" as="geometry">
            <mxPoint as="offset" />
          </mxGeometry>
        </mxCell>
        <mxCell id="1ea317790d2ca983-9" value="girl_room" style="ellipse;whiteSpace=wrap;html=1;rounded=0;shadow=1;comic=0;labelBackgroundColor=none;strokeWidth=1;fontFamily=Verdana;fontSize=12;align=center;" parent="1" vertex="1">
          <mxGeometry x="210" y="190" width="75" height="50" as="geometry" />
        </mxCell>
        <mxCell id="1ea317790d2ca983-20" value="" style="edgeStyle=none;rounded=1;html=1;labelBackgroundColor=none;startArrow=none;startFill=0;startSize=5;endArrow=classicThin;endFill=1;endSize=5;jettySize=auto;orthogonalLoop=1;strokeColor=#B3B3B3;strokeWidth=1;fontFamily=Verdana;fontSize=12" parent="1" source="1ea317790d2ca983-10" target="1ea317790d2ca983-11" edge="1">
          <mxGeometry x="0.2" y="73" relative="1" as="geometry">
            <mxPoint as="offset" />
          </mxGeometry>
        </mxCell>
        <mxCell id="1ea317790d2ca983-10" value="&lt;span&gt;love_room&lt;/span&gt;" style="ellipse;whiteSpace=wrap;html=1;rounded=0;shadow=1;comic=0;labelBackgroundColor=none;strokeWidth=1;fontFamily=Verdana;fontSize=12;align=center;" parent="1" vertex="1">
          <mxGeometry x="210" y="320" width="75" height="50" as="geometry" />
        </mxCell>
        <mxCell id="1ea317790d2ca983-11" value="&lt;span&gt;cupido_room&lt;/span&gt;" style="ellipse;whiteSpace=wrap;html=1;rounded=0;shadow=1;comic=0;labelBackgroundColor=none;strokeWidth=1;fontFamily=Verdana;fontSize=12;align=center;" parent="1" vertex="1">
          <mxGeometry x="210" y="470" width="75" height="50" as="geometry" />
        </mxCell>
        <mxCell id="AS-CjFku39xxLpvBYqgy-1" value="" style="endArrow=classic;html=1;exitX=0.96;exitY=0.708;exitDx=0;exitDy=0;exitPerimeter=0;entryX=0;entryY=0.5;entryDx=0;entryDy=0;" edge="1" parent="1" source="1ea317790d2ca983-9" target="AS-CjFku39xxLpvBYqgy-2">
          <mxGeometry width="50" height="50" relative="1" as="geometry">
            <mxPoint x="290" y="220" as="sourcePoint" />
            <mxPoint x="450" y="280" as="targetPoint" />
          </mxGeometry>
        </mxCell>
        <mxCell id="AS-CjFku39xxLpvBYqgy-2" value="class_room" style="ellipse;whiteSpace=wrap;html=1;" vertex="1" parent="1">
          <mxGeometry x="460" y="250" width="80" height="50" as="geometry" />
        </mxCell>
        <mxCell id="AS-CjFku39xxLpvBYqgy-3" value="" style="endArrow=classic;html=1;exitX=0;exitY=1;exitDx=0;exitDy=0;entryX=1;entryY=0.5;entryDx=0;entryDy=0;" edge="1" parent="1" source="1ea317790d2ca983-3" target="AS-CjFku39xxLpvBYqgy-2">
          <mxGeometry width="50" height="50" relative="1" as="geometry">
            <mxPoint x="700" y="230" as="sourcePoint" />
            <mxPoint x="550" y="280" as="targetPoint" />
          </mxGeometry>
        </mxCell>
        <mxCell id="AS-CjFku39xxLpvBYqgy-4" value="" style="endArrow=classic;html=1;exitX=0.5;exitY=1;exitDx=0;exitDy=0;" edge="1" parent="1" source="AS-CjFku39xxLpvBYqgy-2">
          <mxGeometry width="50" height="50" relative="1" as="geometry">
            <mxPoint x="500" y="310" as="sourcePoint" />
            <mxPoint x="500" y="390" as="targetPoint" />
          </mxGeometry>
        </mxCell>
        <mxCell id="AS-CjFku39xxLpvBYqgy-5" value="study_room" style="ellipse;whiteSpace=wrap;html=1;" vertex="1" parent="1">
          <mxGeometry x="460" y="390" width="80" height="50" as="geometry" />
        </mxCell>
        <mxCell id="AS-CjFku39xxLpvBYqgy-7" value="" style="endArrow=classic;html=1;exitX=1.013;exitY=0.716;exitDx=0;exitDy=0;exitPerimeter=0;entryX=0;entryY=0.5;entryDx=0;entryDy=0;" edge="1" parent="1" source="1ea317790d2ca983-10" target="AS-CjFku39xxLpvBYqgy-5">
          <mxGeometry width="50" height="50" relative="1" as="geometry">
            <mxPoint x="302" y="245.39999999999998" as="sourcePoint" />
            <mxPoint x="450" y="420" as="targetPoint" />
          </mxGeometry>
        </mxCell>
        <mxCell id="AS-CjFku39xxLpvBYqgy-8" value="" style="edgeStyle=none;rounded=1;html=1;labelBackgroundColor=none;startArrow=none;startFill=0;startSize=5;endArrow=classicThin;endFill=1;endSize=5;jettySize=auto;orthogonalLoop=1;strokeColor=#B3B3B3;strokeWidth=1;fontFamily=Verdana;fontSize=12;exitX=0.5;exitY=1;exitDx=0;exitDy=0;" edge="1" parent="1" source="1ea317790d2ca983-11">
          <mxGeometry x="0.2" y="73" relative="1" as="geometry">
            <mxPoint x="247" y="530" as="sourcePoint" />
            <mxPoint x="247" y="630" as="targetPoint" />
            <mxPoint as="offset" />
          </mxGeometry>
        </mxCell>
        <mxCell id="AS-CjFku39xxLpvBYqgy-9" value="&lt;span&gt;sex_room&lt;/span&gt;" style="ellipse;whiteSpace=wrap;html=1;rounded=0;shadow=1;comic=0;labelBackgroundColor=none;strokeWidth=1;fontFamily=Verdana;fontSize=12;align=center;" vertex="1" parent="1">
          <mxGeometry x="210" y="630" width="75" height="50" as="geometry" />
        </mxCell>
        <mxCell id="AS-CjFku39xxLpvBYqgy-12" value="" style="endArrow=classic;html=1;exitX=0.5;exitY=1;exitDx=0;exitDy=0;" edge="1" parent="1" source="AS-CjFku39xxLpvBYqgy-5">
          <mxGeometry width="50" height="50" relative="1" as="geometry">
            <mxPoint x="500" y="410" as="sourcePoint" />
            <mxPoint x="500" y="520" as="targetPoint" />
            <Array as="points" />
          </mxGeometry>
        </mxCell>
        <mxCell id="AS-CjFku39xxLpvBYqgy-13" value="exam_room" style="ellipse;whiteSpace=wrap;html=1;" vertex="1" parent="1">
          <mxGeometry x="460" y="520" width="80" height="50" as="geometry" />
        </mxCell>
        <mxCell id="AS-CjFku39xxLpvBYqgy-14" value="" style="endArrow=classic;html=1;entryX=0;entryY=0.5;entryDx=0;entryDy=0;exitX=1;exitY=0;exitDx=0;exitDy=0;" edge="1" parent="1" source="AS-CjFku39xxLpvBYqgy-9" target="AS-CjFku39xxLpvBYqgy-13">
          <mxGeometry width="50" height="50" relative="1" as="geometry">
            <mxPoint x="270" y="640" as="sourcePoint" />
            <mxPoint x="320" y="590" as="targetPoint" />
          </mxGeometry>
        </mxCell>
        <mxCell id="AS-CjFku39xxLpvBYqgy-15" value="" style="endArrow=classic;html=1;exitX=0.5;exitY=1;exitDx=0;exitDy=0;" edge="1" parent="1" source="AS-CjFku39xxLpvBYqgy-13">
          <mxGeometry width="50" height="50" relative="1" as="geometry">
            <mxPoint x="500" y="510" as="sourcePoint" />
            <mxPoint x="500" y="640" as="targetPoint" />
          </mxGeometry>
        </mxCell>
        <mxCell id="AS-CjFku39xxLpvBYqgy-16" value="neumann_room" style="ellipse;whiteSpace=wrap;html=1;" vertex="1" parent="1">
          <mxGeometry x="460" y="640" width="80" height="50" as="geometry" />
        </mxCell>
        <mxCell id="AS-CjFku39xxLpvBYqgy-17" value="" style="endArrow=classic;html=1;" edge="1" parent="1">
          <mxGeometry width="50" height="50" relative="1" as="geometry">
            <mxPoint x="285" y="500" as="sourcePoint" />
            <mxPoint x="460" y="545" as="targetPoint" />
          </mxGeometry>
        </mxCell>
        <mxCell id="AS-CjFku39xxLpvBYqgy-18" value="" style="endArrow=classic;html=1;exitX=0.027;exitY=0.772;exitDx=0;exitDy=0;exitPerimeter=0;entryX=1;entryY=0.5;entryDx=0;entryDy=0;" edge="1" parent="1" source="1ea317790d2ca983-5" target="AS-CjFku39xxLpvBYqgy-13">
          <mxGeometry width="50" height="50" relative="1" as="geometry">
            <mxPoint x="560" y="520" as="sourcePoint" />
            <mxPoint x="610" y="470" as="targetPoint" />
          </mxGeometry>
        </mxCell>
        <mxCell id="AS-CjFku39xxLpvBYqgy-19" value="" style="endArrow=classic;html=1;exitX=-0.005;exitY=0.668;exitDx=0;exitDy=0;exitPerimeter=0;entryX=1;entryY=0.5;entryDx=0;entryDy=0;" edge="1" parent="1" source="1ea317790d2ca983-4" target="AS-CjFku39xxLpvBYqgy-5">
          <mxGeometry width="50" height="50" relative="1" as="geometry">
            <mxPoint x="560" y="410" as="sourcePoint" />
            <mxPoint x="610" y="360" as="targetPoint" />
          </mxGeometry>
        </mxCell>
        <mxCell id="AS-CjFku39xxLpvBYqgy-20" value="" style="edgeStyle=none;rounded=1;html=1;labelBackgroundColor=none;startArrow=none;startFill=0;startSize=5;endArrow=classicThin;endFill=1;endSize=5;jettySize=auto;orthogonalLoop=1;strokeColor=#B3B3B3;strokeWidth=1;fontFamily=Verdana;fontSize=12;exitX=0.5;exitY=1;exitDx=0;exitDy=0;" edge="1" parent="1">
          <mxGeometry x="0.2" y="73" relative="1" as="geometry">
            <mxPoint x="737.5" y="530" as="sourcePoint" />
            <mxPoint x="737" y="640" as="targetPoint" />
            <mxPoint as="offset" />
          </mxGeometry>
        </mxCell>
        <mxCell id="AS-CjFku39xxLpvBYqgy-21" value="&lt;span&gt;gaming_room&lt;/span&gt;" style="ellipse;whiteSpace=wrap;html=1;rounded=0;shadow=1;comic=0;labelBackgroundColor=none;strokeWidth=1;fontFamily=Verdana;fontSize=12;align=center;direction=west;" vertex="1" parent="1">
          <mxGeometry x="700" y="640" width="75" height="50" as="geometry" />
        </mxCell>
        <mxCell id="AS-CjFku39xxLpvBYqgy-22" value="" style="endArrow=classic;html=1;exitX=1;exitY=1;exitDx=0;exitDy=0;entryX=1;entryY=0.5;entryDx=0;entryDy=0;" edge="1" parent="1" source="AS-CjFku39xxLpvBYqgy-21" target="AS-CjFku39xxLpvBYqgy-13">
          <mxGeometry width="50" height="50" relative="1" as="geometry">
            <mxPoint x="620" y="630" as="sourcePoint" />
            <mxPoint x="670" y="580" as="targetPoint" />
          </mxGeometry>
        </mxCell>
        <mxCell id="AS-CjFku39xxLpvBYqgy-23" value="" style="endArrow=classic;html=1;exitX=0;exitY=0.5;exitDx=0;exitDy=0;" edge="1" parent="1" source="AS-CjFku39xxLpvBYqgy-21">
          <mxGeometry width="50" height="50" relative="1" as="geometry">
            <mxPoint x="790" y="660" as="sourcePoint" />
            <mxPoint x="850" y="665" as="targetPoint" />
          </mxGeometry>
        </mxCell>
        <mxCell id="AS-CjFku39xxLpvBYqgy-24" value="&lt;span&gt;depression_room&lt;/span&gt;" style="ellipse;whiteSpace=wrap;html=1;rounded=0;shadow=1;comic=0;labelBackgroundColor=none;strokeWidth=1;fontFamily=Verdana;fontSize=12;align=center;direction=west;" vertex="1" parent="1">
          <mxGeometry x="850" y="640" width="75" height="50" as="geometry" />
        </mxCell>
        <mxCell id="AS-CjFku39xxLpvBYqgy-27" value="" style="endArrow=classic;html=1;exitX=0;exitY=1;exitDx=0;exitDy=0;entryX=0.635;entryY=-0.02;entryDx=0;entryDy=0;entryPerimeter=0;" edge="1" parent="1" source="AS-CjFku39xxLpvBYqgy-16" target="AS-CjFku39xxLpvBYqgy-29">
          <mxGeometry width="50" height="50" relative="1" as="geometry">
            <mxPoint x="530" y="710" as="sourcePoint" />
            <mxPoint x="240" y="760" as="targetPoint" />
          </mxGeometry>
        </mxCell>
        <mxCell id="AS-CjFku39xxLpvBYqgy-28" value="" style="endArrow=classic;html=1;exitX=1;exitY=1;exitDx=0;exitDy=0;entryX=0.5;entryY=0;entryDx=0;entryDy=0;" edge="1" parent="1" source="AS-CjFku39xxLpvBYqgy-16" target="AS-CjFku39xxLpvBYqgy-30">
          <mxGeometry width="50" height="50" relative="1" as="geometry">
            <mxPoint x="530" y="710" as="sourcePoint" />
            <mxPoint x="740" y="760" as="targetPoint" />
          </mxGeometry>
        </mxCell>
        <mxCell id="AS-CjFku39xxLpvBYqgy-29" value="&lt;span&gt;weed_room&lt;/span&gt;" style="ellipse;whiteSpace=wrap;html=1;rounded=0;shadow=1;comic=0;labelBackgroundColor=none;strokeWidth=1;fontFamily=Verdana;fontSize=12;align=center;" vertex="1" parent="1">
          <mxGeometry x="200" y="760" width="75" height="50" as="geometry" />
        </mxCell>
        <mxCell id="AS-CjFku39xxLpvBYqgy-30" value="&lt;span&gt;snorlax_room&lt;/span&gt;" style="ellipse;whiteSpace=wrap;html=1;rounded=0;shadow=1;comic=0;labelBackgroundColor=none;strokeWidth=1;fontFamily=Verdana;fontSize=12;align=center;" vertex="1" parent="1">
          <mxGeometry x="700" y="760" width="75" height="50" as="geometry" />
        </mxCell>
        <mxCell id="AS-CjFku39xxLpvBYqgy-31" value="" style="edgeStyle=none;rounded=1;html=1;labelBackgroundColor=none;startArrow=none;startFill=0;startSize=5;endArrow=classicThin;endFill=1;endSize=5;jettySize=auto;orthogonalLoop=1;strokeWidth=1;fontFamily=Verdana;fontSize=12;" edge="1" parent="1">
          <mxGeometry x="0.2" y="73" relative="1" as="geometry">
            <mxPoint x="237" y="810" as="sourcePoint" />
            <mxPoint x="237" y="920" as="targetPoint" />
            <mxPoint as="offset" />
          </mxGeometry>
        </mxCell>
        <mxCell id="AS-CjFku39xxLpvBYqgy-33" value="" style="edgeStyle=none;rounded=1;html=1;labelBackgroundColor=none;startArrow=none;startFill=0;startSize=5;endArrow=classicThin;endFill=1;endSize=5;jettySize=auto;orthogonalLoop=1;strokeWidth=1;fontFamily=Verdana;fontSize=12;" edge="1" parent="1">
          <mxGeometry x="0.2" y="73" relative="1" as="geometry">
            <mxPoint x="737" y="810" as="sourcePoint" />
            <mxPoint x="737" y="920" as="targetPoint" />
            <mxPoint as="offset" />
          </mxGeometry>
        </mxCell>
        <mxCell id="AS-CjFku39xxLpvBYqgy-34" value="&lt;span&gt;meet_room&lt;/span&gt;" style="ellipse;whiteSpace=wrap;html=1;rounded=0;shadow=1;comic=0;labelBackgroundColor=none;strokeWidth=1;fontFamily=Verdana;fontSize=12;align=center;" vertex="1" parent="1">
          <mxGeometry x="200" y="920" width="75" height="50" as="geometry" />
        </mxCell>
        <mxCell id="AS-CjFku39xxLpvBYqgy-35" value="&lt;span&gt;heroe_room&lt;/span&gt;" style="ellipse;whiteSpace=wrap;html=1;rounded=0;shadow=1;comic=0;labelBackgroundColor=none;strokeWidth=1;fontFamily=Verdana;fontSize=12;align=center;" vertex="1" parent="1">
          <mxGeometry x="700" y="920" width="75" height="50" as="geometry" />
        </mxCell>
        <mxCell id="AS-CjFku39xxLpvBYqgy-36" value="" style="edgeStyle=none;rounded=1;html=1;labelBackgroundColor=none;startArrow=none;startFill=0;startSize=5;endArrow=classicThin;endFill=1;endSize=5;jettySize=auto;orthogonalLoop=1;strokeWidth=1;fontFamily=Verdana;fontSize=12;" edge="1" parent="1">
          <mxGeometry x="0.2" y="73" relative="1" as="geometry">
            <mxPoint x="237" y="970" as="sourcePoint" />
            <mxPoint x="237" y="1080" as="targetPoint" />
            <mxPoint as="offset" />
          </mxGeometry>
        </mxCell>
        <mxCell id="AS-CjFku39xxLpvBYqgy-37" value="" style="edgeStyle=none;rounded=1;html=1;labelBackgroundColor=none;startArrow=none;startFill=0;startSize=5;endArrow=classicThin;endFill=1;endSize=5;jettySize=auto;orthogonalLoop=1;strokeWidth=1;fontFamily=Verdana;fontSize=12;" edge="1" parent="1">
          <mxGeometry x="0.2" y="73" relative="1" as="geometry">
            <mxPoint x="737" y="970" as="sourcePoint" />
            <mxPoint x="737" y="1080" as="targetPoint" />
            <mxPoint as="offset" />
          </mxGeometry>
        </mxCell>
        <mxCell id="AS-CjFku39xxLpvBYqgy-38" value="&lt;span&gt;plan_room&lt;/span&gt;" style="ellipse;whiteSpace=wrap;html=1;rounded=0;shadow=1;comic=0;labelBackgroundColor=none;strokeWidth=1;fontFamily=Verdana;fontSize=12;align=center;" vertex="1" parent="1">
          <mxGeometry x="200" y="1080" width="75" height="50" as="geometry" />
        </mxCell>
        <mxCell id="AS-CjFku39xxLpvBYqgy-39" value="&lt;span&gt;jl_room&lt;/span&gt;" style="ellipse;whiteSpace=wrap;html=1;rounded=0;shadow=1;comic=0;labelBackgroundColor=none;strokeWidth=1;fontFamily=Verdana;fontSize=12;align=center;" vertex="1" parent="1">
          <mxGeometry x="700" y="1080" width="75" height="50" as="geometry" />
        </mxCell>
        <mxCell id="AS-CjFku39xxLpvBYqgy-40" value="" style="endArrow=classic;html=1;strokeColor=#000000;" edge="1" parent="1">
          <mxGeometry width="50" height="50" relative="1" as="geometry">
            <mxPoint x="775" y="950" as="sourcePoint" />
            <mxPoint x="840" y="950" as="targetPoint" />
          </mxGeometry>
        </mxCell>
        <mxCell id="AS-CjFku39xxLpvBYqgy-41" value="&lt;span&gt;putin_room&lt;/span&gt;" style="ellipse;whiteSpace=wrap;html=1;rounded=0;shadow=1;comic=0;labelBackgroundColor=none;strokeWidth=1;fontFamily=Verdana;fontSize=12;align=center;" vertex="1" parent="1">
          <mxGeometry x="840" y="920" width="75" height="50" as="geometry" />
        </mxCell>
        <mxCell id="AS-CjFku39xxLpvBYqgy-42" value="" style="endArrow=classic;html=1;strokeColor=#000000;" edge="1" parent="1">
          <mxGeometry width="50" height="50" relative="1" as="geometry">
            <mxPoint x="775" y="1110" as="sourcePoint" />
            <mxPoint x="840" y="1110" as="targetPoint" />
          </mxGeometry>
        </mxCell>
        <mxCell id="AS-CjFku39xxLpvBYqgy-43" value="&lt;span&gt;putin_love_room&lt;/span&gt;" style="ellipse;whiteSpace=wrap;html=1;rounded=0;shadow=1;comic=0;labelBackgroundColor=none;strokeWidth=1;fontFamily=Verdana;fontSize=12;align=center;" vertex="1" parent="1">
          <mxGeometry x="840" y="1080" width="75" height="50" as="geometry" />
        </mxCell>
        <mxCell id="AS-CjFku39xxLpvBYqgy-45" value="" style="edgeStyle=none;rounded=1;html=1;labelBackgroundColor=none;startArrow=none;startFill=0;startSize=5;endArrow=classicThin;endFill=1;endSize=5;jettySize=auto;orthogonalLoop=1;strokeWidth=1;fontFamily=Verdana;fontSize=12;" edge="1" parent="1">
          <mxGeometry x="0.2" y="73" relative="1" as="geometry">
            <mxPoint x="237" y="1130" as="sourcePoint" />
            <mxPoint x="237" y="1240" as="targetPoint" />
            <mxPoint as="offset" />
          </mxGeometry>
        </mxCell>
        <mxCell id="AS-CjFku39xxLpvBYqgy-46" value="&lt;span&gt;jl2_room&lt;/span&gt;" style="ellipse;whiteSpace=wrap;html=1;rounded=0;shadow=1;comic=0;labelBackgroundColor=none;strokeWidth=1;fontFamily=Verdana;fontSize=12;align=center;" vertex="1" parent="1">
          <mxGeometry x="200" y="1240" width="75" height="50" as="geometry" />
        </mxCell>
        <mxCell id="AS-CjFku39xxLpvBYqgy-47" value="&lt;span&gt;final_room&lt;/span&gt;" style="ellipse;whiteSpace=wrap;html=1;rounded=0;shadow=1;comic=0;labelBackgroundColor=none;strokeWidth=1;fontFamily=Verdana;fontSize=12;align=center;" vertex="1" parent="1">
          <mxGeometry x="457.5" y="1160" width="75" height="50" as="geometry" />
        </mxCell>
        <mxCell id="AS-CjFku39xxLpvBYqgy-48" value="" style="endArrow=classic;html=1;strokeColor=#000000;entryX=0.049;entryY=0.732;entryDx=0;entryDy=0;entryPerimeter=0;" edge="1" parent="1" target="AS-CjFku39xxLpvBYqgy-47">
          <mxGeometry width="50" height="50" relative="1" as="geometry">
            <mxPoint x="275" y="1260" as="sourcePoint" />
            <mxPoint x="325" y="1210" as="targetPoint" />
          </mxGeometry>
        </mxCell>
        <mxCell id="AS-CjFku39xxLpvBYqgy-49" value="" style="endArrow=classic;html=1;strokeColor=#000000;exitX=0.027;exitY=0.716;exitDx=0;exitDy=0;exitPerimeter=0;entryX=1;entryY=0.5;entryDx=0;entryDy=0;" edge="1" parent="1" source="AS-CjFku39xxLpvBYqgy-39" target="AS-CjFku39xxLpvBYqgy-47">
          <mxGeometry width="50" height="50" relative="1" as="geometry">
            <mxPoint x="540" y="1160" as="sourcePoint" />
            <mxPoint x="590" y="1110" as="targetPoint" />
          </mxGeometry>
        </mxCell>
      </root>
    </mxGraphModel>
  </diagram>
</mxfile>
